<?xml version="1.0" standalone="no"?>
<svg xmlns:xlink="http://www.w3.org/1999/xlink" id="wave" style="transform:rotate(0deg); transition: 0.3s" height="100%" width="100%" viewBox="0 0 1440 490" version="1.1" xmlns="http://www.w3.org/2000/svg"><defs><linearGradient id="sw-gradient-0" x1="0" x2="0" y1="1" y2="0"><stop stop-color="rgba(249, 172, 64, 1)" offset="0%"/><stop stop-color="rgba(249, 217.244, 64, 1)" offset="100%"/></linearGradient></defs><path style="transform:translate(0, 0px); opacity:1" fill="url(#sw-gradient-0)" d="M0,441L60,383.8C120,327,240,212,360,204.2C480,196,600,294,720,277.7C840,261,960,131,1080,73.5C1200,16,1320,33,1440,49C1560,65,1680,82,1800,122.5C1920,163,2040,229,2160,228.7C2280,229,2400,163,2520,163.3C2640,163,2760,229,2880,245C3000,261,3120,229,3240,187.8C3360,147,3480,98,3600,106.2C3720,114,3840,180,3960,171.5C4080,163,4200,82,4320,57.2C4440,33,4560,65,4680,114.3C4800,163,4920,229,5040,220.5C5160,212,5280,131,5400,89.8C5520,49,5640,49,5760,49C5880,49,6000,49,6120,89.8C6240,131,6360,212,6480,236.8C6600,261,6720,229,6840,204.2C6960,180,7080,163,7200,171.5C7320,180,7440,212,7560,196C7680,180,7800,114,7920,98C8040,82,8160,114,8280,171.5C8400,229,8520,310,8580,351.2L8640,392L8640,490L8580,490C8520,490,8400,490,8280,490C8160,490,8040,490,7920,490C7800,490,7680,490,7560,490C7440,490,7320,490,7200,490C7080,490,6960,490,6840,490C6720,490,6600,490,6480,490C6360,490,6240,490,6120,490C6000,490,5880,490,5760,490C5640,490,5520,490,5400,490C5280,490,5160,490,5040,490C4920,490,4800,490,4680,490C4560,490,4440,490,4320,490C4200,490,4080,490,3960,490C3840,490,3720,490,3600,490C3480,490,3360,490,3240,490C3120,490,3000,490,2880,490C2760,490,2640,490,2520,490C2400,490,2280,490,2160,490C2040,490,1920,490,1800,490C1680,490,1560,490,1440,490C1320,490,1200,490,1080,490C960,490,840,490,720,490C600,490,480,490,360,490C240,490,120,490,60,490L0,490Z"/></svg>